<svg xmlns="http://www.w3.org/2000/svg" width="25" height="25" viewBox="0 0 25 25">
  <g id="Group_59806" data-name="Group 59806" transform="translate(-1169 -5053.7)">
    <circle id="Ellipse_67" data-name="Ellipse 67" cx="12.5" cy="12.5" r="12.5" transform="translate(1169 5053.7)" fill="#ebebeb"/>
    <path id="Icon_simple-instagram" data-name="Icon simple-instagram" d="M5.794,0C4.22,0,4.024.007,3.406.035A4.273,4.273,0,0,0,2,.3,2.837,2.837,0,0,0,.972.972,2.827,2.827,0,0,0,.3,2,4.26,4.26,0,0,0,.035,3.406C.006,4.024,0,4.22,0,5.794S.007,7.565.035,8.183A4.275,4.275,0,0,0,.3,9.59a2.842,2.842,0,0,0,.668,1.027A2.833,2.833,0,0,0,2,11.284a4.278,4.278,0,0,0,1.407.269c.618.029.815.035,2.389.035s1.771-.007,2.389-.035a4.288,4.288,0,0,0,1.407-.269A2.961,2.961,0,0,0,11.284,9.59a4.275,4.275,0,0,0,.269-1.407c.029-.618.035-.815.035-2.389s-.007-1.771-.035-2.389A4.285,4.285,0,0,0,11.284,2,2.844,2.844,0,0,0,10.616.972,2.823,2.823,0,0,0,9.59.3,4.263,4.263,0,0,0,8.183.035C7.565.006,7.368,0,5.794,0Zm0,1.043c1.547,0,1.731.008,2.342.034a3.192,3.192,0,0,1,1.075.2,1.907,1.907,0,0,1,1.1,1.1,3.2,3.2,0,0,1,.2,1.075c.028.611.034.795.034,2.342s-.007,1.731-.036,2.342a3.261,3.261,0,0,1-.2,1.075,1.84,1.84,0,0,1-.434.667,1.808,1.808,0,0,1-.666.433,3.223,3.223,0,0,1-1.079.2c-.615.028-.8.034-2.346.034s-1.732-.007-2.346-.036a3.286,3.286,0,0,1-1.08-.2,1.794,1.794,0,0,1-.666-.434,1.759,1.759,0,0,1-.435-.666,3.288,3.288,0,0,1-.2-1.079c-.022-.608-.029-.8-.029-2.339s.008-1.732.029-2.347a3.285,3.285,0,0,1,.2-1.079,1.718,1.718,0,0,1,.435-.667,1.714,1.714,0,0,1,.666-.434,3.207,3.207,0,0,1,1.072-.2c.616-.022.8-.029,2.346-.029l.022.014Zm0,1.776A2.975,2.975,0,1,0,8.77,5.794,2.975,2.975,0,0,0,5.794,2.819Zm0,4.907A1.931,1.931,0,1,1,7.726,5.794,1.931,1.931,0,0,1,5.794,7.726ZM9.583,2.7a.7.7,0,1,1-.7-.695A.7.7,0,0,1,9.583,2.7Z" transform="translate(1175.592 5060.489)" fill="#151515"/>
  </g>
</svg>
